<?xml version="1.0" encoding="UTF-8"?>
<svg width="28px" height="27px" viewBox="0 0 28 27" version="1.1" xmlns="http://www.w3.org/2000/svg" xmlns:xlink="http://www.w3.org/1999/xlink">
    <title>Behance</title>
    <g id="Page-1" stroke="none" stroke-width="1" fill="none" fill-rule="evenodd">
        <g id="Behance" transform="translate(0.470588, 0.000000)" fill="#191919">
            <path d="M25.7142858,-8.33331702e-08 C26.2402713,-8.33331702e-08 26.6666668,0.426395396 26.6666668,0.952380875 L26.6666668,0.952380875 L26.6666668,25.7142858 C26.6666668,26.2402713 26.2402713,26.6666668 25.7142858,26.6666668 L25.7142858,26.6666668 L0.952380875,26.6666668 C0.426395396,26.6666668 -8.33327379e-08,26.2402713 -8.33327379e-08,25.7142858 L-8.33327379e-08,25.7142858 L-8.33327379e-08,0.952380875 C-8.33327379e-08,0.426395396 0.426395396,-8.33331702e-08 0.952380875,-8.33331702e-08 L0.952380875,-8.33331702e-08 Z M18.9709703,10.3231761 L18.7238096,10.3238095 C18.1191146,10.3149907 17.5191676,10.4317372 16.9619048,10.6666667 C15.9088377,11.1016734 15.086559,11.9585018 14.6952381,13.0285714 C14.4824721,13.5980144 14.3759481,14.2016508 14.3809524,14.8095238 C14.3758686,15.425885 14.4790212,16.0383541 14.6857143,16.6190476 C14.8756673,17.140823 15.1669745,17.6198614 15.5428572,18.0285715 C15.9284745,18.4383217 16.3956498,18.762749 16.9142857,18.9809524 C17.4920868,19.2004369 18.1057502,19.3102504 18.7238096,19.3047619 C19.5909976,19.3324176 20.4466616,19.1002607 21.1809524,18.6380953 C21.928555,18.1096736 22.4649939,17.3336927 22.6952382,16.4476191 L22.6952382,16.4476191 L20.6476191,16.4476191 C20.5299266,16.7626976 20.3081661,17.0281381 20.0190477,17.2 C19.1713494,17.7346129 18.0780166,17.6734474 17.2952381,17.0476191 C16.9061395,16.5962843 16.7020232,16.0145526 16.7238095,15.4190476 L16.7238095,15.4190476 L22.8095239,15.4190476 C22.8597136,14.7795464 22.8050241,14.1361414 22.6476191,13.5142857 C22.5062376,12.9348487 22.2539738,12.3882772 21.904762,11.9047619 C21.5792914,11.4202097 21.1414449,11.0215734 20.6285715,10.7428571 C20.0388984,10.4454833 19.3838414,10.3013707 18.7238096,10.3238095 Z M9.33333331,7.36190472 L3.80952375,7.36190472 L3.80952375,19.0476191 L9.5238095,19.0476191 C10.0175545,19.0553905 10.5103149,19.0009949 10.9904762,18.8857143 C11.4674858,18.7630357 11.9189328,18.5566599 12.3238095,18.2761905 C12.7190559,18.002549 13.0451312,17.6406055 13.2761905,17.2190476 C13.5120122,16.7463077 13.6296606,16.2234259 13.6190476,15.6952381 C13.6468873,15.0199263 13.4601873,14.3531404 13.0857143,13.7904762 C12.6986925,13.2433949 12.1271361,12.854466 11.4761905,12.6952381 C11.9554303,12.4929368 12.370347,12.1636379 12.6761905,11.7428571 C12.9561585,11.302752 13.0956639,10.7879107 13.0761905,10.2666666 C13.0933216,9.79514829 13.0020946,9.32598104 12.8095238,8.89523807 C12.64187,8.53297802 12.3784136,8.22341678 12.047619,7.99999997 C11.6877419,7.75922003 11.2827427,7.59398037 10.8571428,7.51428568 C10.3565267,7.40651634 9.84537668,7.35540133 9.33333331,7.36190472 L9.33333331,7.36190472 Z M9.19047616,13.8571429 C9.67633009,13.8460244 10.1520865,13.9967922 10.5428571,14.2857143 C10.8955992,14.6007263 11.0820856,15.0616644 11.047619,15.5333333 C11.0605959,15.7959938 11.00824,16.0577734 10.8952381,16.2952381 C10.7975726,16.483939 10.6533322,16.6445703 10.4761905,16.7619048 C10.292628,16.8862738 10.0849574,16.9706399 9.86666665,17.0095238 C9.62944639,17.0645796 9.38634169,17.0901696 9.14285712,17.0857143 L9.14285712,17.0857143 L6.39047615,17.0857143 L6.39047615,13.8571429 Z M18.6571429,12.1142857 C19.1521627,12.0744454 19.6406689,12.2476745 20,12.5904762 C20.3129296,12.9694939 20.4905501,13.4420316 20.5047619,13.9333333 L20.5047619,13.9333333 L16.6952381,13.9333333 C16.7112885,13.7430008 16.7463847,13.5547575 16.8,13.3714286 C16.8623353,13.1519235 16.9693319,12.9476573 17.1142857,12.7714286 C17.2781142,12.5781488 17.4788576,12.4194967 17.7047619,12.3047619 C18.0019946,12.1647227 18.328913,12.099339 18.6571429,12.1142857 Z M8.79999997,9.3618935 C9.02346808,9.36136197 9.24655057,9.38048333 9.46666664,9.41904759 C9.66891553,9.45121912 9.86298739,9.5223788 10.0380952,9.62857141 C10.2020803,9.72407758 10.3370438,9.86233288 10.4285714,10.0285714 C10.5311888,10.2387508 10.5802633,10.4710363 10.5714286,10.7047619 C10.6099937,11.1107715 10.4461355,11.5097306 10.1333333,11.7714286 C9.79929338,11.9964764 9.40251197,12.1098425 8.99999997,12.0952381 L8.99999997,12.0952381 L6.39047615,12.0952381 L6.39047615,9.3618935 Z M21.0095239,8.15238092 L16.2476191,8.15238092 L16.2476191,9.30476188 L21.0095239,9.30476188 L21.0095239,8.15238092 Z" id="Color"></path>
        </g>
    </g>
</svg>