<?xml version="1.0" encoding="UTF-8"?>
<svg width="28px" height="27px" viewBox="0 0 28 27" version="1.1" xmlns="http://www.w3.org/2000/svg" xmlns:xlink="http://www.w3.org/1999/xlink">
    <title>dribbble</title>
    <defs>
        <path d="M25.7142857,-2.92053963e-13 L0.952380952,-2.92053963e-13 C0.426395476,-2.92053963e-13 7.37675716e-13,0.426395476 7.37675716e-13,0.952380952 L7.37675716e-13,25.7142857 C7.37675716e-13,26.2402712 0.426395476,26.6666667 0.952380952,26.6666667 L25.7142857,26.6666667 C26.2402712,26.6666667 26.6666667,26.2402712 26.6666667,25.7142857 L26.6666667,0.952380952 C26.6666667,0.426395476 26.2402712,-2.92053963e-13 25.7142857,-2.92053963e-13 Z" id="path-1"></path>
    </defs>
    <g id="Page-1" stroke="none" stroke-width="1" fill="none" fill-rule="evenodd">
        <g id="dribbble" transform="translate(0.941176, 0.000000)">
            <g id="Shape" transform="translate(-0.000000, -0.000000)">
                <mask id="mask-2" fill="white">
                    <use xlink:href="#path-1"></use>
                </mask>
                <use id="Mask" fill="#191919" xlink:href="#path-1"></use>
                <path d="M16.4979527,20.8985274 C16.5119613,20.8943248 16.5252695,20.8887213 16.5392781,20.8838183 C25.0950432,17.4846265 22.7282867,4.66954031 13.4482759,4.66954031 C8.79111,4.66954031 5.04310353,8.46587652 5.04310353,13.0747127 C5.04310353,18.9072019 10.9505389,23.0691632 16.4979527,20.8985274 Z M8.74207982,18.7194864 C9.33884706,17.7164692 11.2699354,14.8867278 14.5661639,13.9103269 C15.255388,15.6677084 15.7386854,17.7178701 15.7863147,20.0426007 C13.2885777,20.8824175 10.6542565,20.3171696 8.74207982,18.7194864 Z M16.8194505,19.6041308 C16.727694,17.3704563 16.2717134,15.3896373 15.6217134,13.6735813 C17.0800109,13.4459412 18.7680497,13.5979347 20.6823277,14.3649067 C20.2753772,16.6490123 18.8149785,18.5688938 16.8194505,19.6041308 L16.8194505,19.6041308 Z M20.7922953,13.2785382 C18.6839979,12.4863507 16.8257544,12.3875899 15.2175647,12.6943787 C14.9689117,12.1340338 14.7076509,11.5954024 14.4309807,11.0994972 C16.8985992,10.1139907 18.3568966,8.91275152 19.0096984,8.27676014 C20.1619074,9.61038083 20.8462285,11.3369433 20.7922953,13.2785382 L20.7922953,13.2785382 Z M18.2637393,7.52869979 C17.6697738,8.09394764 16.271013,9.23565023 13.879041,10.1693248 C12.7065195,8.31458342 11.4527479,7.00617824 10.6584591,6.27352738 C13.1996229,5.22708342 16.1302264,5.67395842 18.2637393,7.52869979 Z M9.65404103,6.78694333 C10.25361,7.3143679 11.5697199,8.58074721 12.8396014,10.5391524 C11.0955281,11.1008981 8.90878241,11.5134519 6.24924577,11.5715877 C6.67230612,9.54454031 7.9358837,7.82708342 9.65404103,6.78694333 Z M6.11616387,12.6264369 C9.09299577,12.5781071 11.5024785,12.1081179 13.4069505,11.4721265 C13.6703126,11.9337106 13.9203665,12.4366201 14.1606143,12.9591416 C10.8440734,14.0153916 8.77149793,16.7421696 7.97790956,17.9735274 C6.69752163,16.5446481 5.99148715,14.6801007 6.11616387,12.6264369 Z" stroke="#FFFFFF" stroke-width="0.833333333" fill="#FFFFFF" fill-rule="nonzero" mask="url(#mask-2)"></path>
            </g>
            <g transform="translate(3.735632, 3.735632)"></g>
        </g>
    </g>
</svg>