<?xml version="1.0" encoding="UTF-8"?>
<svg width="27px" height="27px" viewBox="0 0 27 27" version="1.1" xmlns="http://www.w3.org/2000/svg" xmlns:xlink="http://www.w3.org/1999/xlink">
    <title>LinkedIn</title>
    <g id="Page-1" stroke="none" stroke-width="1" fill="none" fill-rule="evenodd">
        <g id="LinkedIn" fill="#191919">
            <path d="M25.7142858,-8.33331017e-08 L0.952380875,-8.33331017e-08 C0.426395396,-8.33331017e-08 -8.33335348e-08,0.426395396 -8.33335348e-08,0.952380875 L-8.33335348e-08,25.7142858 C-8.33335348e-08,26.2402713 0.426395396,26.6666668 0.952380875,26.6666668 L25.7142858,26.6666668 C26.2402713,26.6666668 26.6666667,26.2402713 26.6666667,25.7142858 L26.6666667,0.952380875 C26.6666667,0.426395396 26.2402713,-8.33331017e-08 25.7142858,-8.33331017e-08 Z M8.86666664,21.4095239 L5.50476186,21.4095239 L5.50476186,10.6190476 L8.86666664,10.6190476 L8.86666664,21.4095239 Z M7.18095234,9.14285712 C6.1355797,9.11671458 5.30675043,8.25269704 5.32407087,7.20714102 C5.34139131,6.161585 6.19838417,5.3254944 7.24404913,5.3339915 C8.28971408,5.34248861 9.13300647,6.19239578 9.1333334,7.2380952 C9.13349381,7.75162928 8.92629061,8.24347161 8.55871216,8.60208473 C8.19113372,8.96069785 7.69432595,9.15569549 7.18095234,9.14285712 L7.18095234,9.14285712 Z M21.4666667,21.4095239 L18.0952381,21.4095239 L18.0952381,16.1904762 C18.0952381,14.9428572 18.0952381,13.3333333 16.352381,13.3333333 C14.6095238,13.3333333 14.2857143,14.6666667 14.2857143,16.0761905 L14.2857143,21.4095239 L10.9714286,21.4095239 L10.9714286,10.6190476 L14.1809524,10.6190476 L14.1809524,12.0952381 L14.2285714,12.0952381 C14.8839008,10.9743822 16.1025021,10.3047004 17.4,10.3523809 C20.8,10.3523809 21.4285715,12.5904762 21.4285715,15.4952381 L21.4666667,21.4095239 Z" id="Color"></path>
        </g>
    </g>
</svg>