<?xml version="1.0" encoding="UTF-8"?>
<svg width="14px" height="14px" viewBox="0 0 14 14" version="1.1" xmlns="http://www.w3.org/2000/svg" xmlns:xlink="http://www.w3.org/1999/xlink">
    <title>Icons/Devices/Phone/Phone black 16</title>
    <g id="3-Atoms" stroke="none" stroke-width="1" fill="none" fill-rule="evenodd">
        <g id="Icons" transform="translate(-25.000000, -509.000000)" fill="#191919">
            <g id="Icons/Contact/Phone/Phone-black-16" transform="translate(24.000000, 508.000000)">
                <path d="M14.16,10.525 L11.16,9.52500001 C10.9242277,9.44638996 10.6665064,9.55288635 10.555,9.77500001 L9.69500001,11.5 C7.19499999,11.31 4.69499998,8.83500001 4.50999998,6.31499999 L6.22499999,5.45499998 C6.46174104,5.35178704 6.58092114,5.085257 6.49999159,4.83999998 L5.49999159,1.83999996 C5.42850302,1.62731449 5.22407616,1.48830423 4.99999159,1.49999996 L2.99999159,1.49999996 C2.86709848,1.49931464 2.73935938,1.5514067 2.64499997,1.64499996 L1.64499996,2.64499997 C1.5514067,2.73935938 1.49923158,2.86709848 1.49999159,2.99999997 C1.49999159,9.88000001 6.11999999,14.5000084 12.9999916,14.5000084 C13.1329015,14.5007684 13.2606406,14.4485933 13.355,14.355 L14.355,13.355 C14.4485933,13.2606406 14.5007684,13.1329015 14.5000084,13 L14.5000084,11 C14.5005549,10.7850421 14.3636559,10.5937861 14.16,10.525 Z" id="Color"></path>
            </g>
        </g>
    </g>
</svg>